<?xml version="1.0" encoding="utf-8"?>
<!-- Generator: Adobe Illustrator 24.0.0, SVG Export Plug-In . SVG Version: 6.00 Build 0)  -->
<svg version="1.1" id="Capa_1" xmlns="http://www.w3.org/2000/svg" xmlns:xlink="http://www.w3.org/1999/xlink" x="0px" y="0px"
	 viewBox="0 0 200 200" style="enable-background:new 0 0 200 200;" xml:space="preserve">
<style type="text/css">
	.st0{opacity:0.15;fill:#5B89FC;enable-background:new    ;}
	.st1{fill:#3A78DD;}
</style>
<circle class="st0" cx="100" cy="100" r="94"/>
<g>
	<path class="st1" d="M144.8,68.9h-3.6v-0.5c0-0.5-0.2-1-0.6-1.3c-0.4-0.3-0.9-0.5-1.5-0.4c-4.3,0.9-9.1,1.2-13.6,1.4
		c-9.7,0.5-19.6,1.1-25.4,8c-5.8-6.9-15.7-7.4-25.4-8c-4.6-0.3-9.3-0.5-13.6-1.4c-0.5-0.1-1,0-1.5,0.4c-0.4,0.3-0.6,0.8-0.6,1.3v0.5
		h-3.6c-1,0-1.7,0.8-1.7,1.7v51.7c0,0.8,0.6,1.6,1.4,1.7l38.3,6.7c2.2,1.7,4.5,2.5,6.8,2.5s4.6-0.8,6.8-2.5l38.3-6.7
		c0.8-0.2,1.4-0.9,1.4-1.7V70.7C146.5,69.7,145.7,68.9,144.8,68.9z M95,127.8c-0.2-0.2-0.5-0.3-0.8-0.4L57,121V72.4h1.9v46.1
		c0,0.8,0.6,1.5,1.4,1.7c4.6,1,9.4,1.2,14.1,1.5c9.8,0.5,19.1,1.1,23.7,7.8C97.1,129.2,96.1,128.6,95,127.8z M98.2,124.4
		c-5.9-5.2-14.9-5.7-23.7-6.2c-4.1-0.2-8.3-0.5-12.2-1.2V70.5c4,0.7,8.1,0.9,12,1.1c9.9,0.6,19.3,1.1,23.9,8
		C98.2,79.6,98.2,124.4,98.2,124.4z M101.7,79.6c4.6-6.9,13.9-7.4,23.9-8c4-0.2,8.1-0.5,12-1.1V117c-3.9,0.7-8.2,0.9-12.2,1.2
		c-8.8,0.5-17.8,1-23.7,6.2C101.7,124.4,101.7,79.6,101.7,79.6z M143,121l-37.3,6.5c-0.3,0-0.6,0.2-0.8,0.4c-1,0.8-2.1,1.4-3.1,1.7
		c4.6-6.7,13.9-7.2,23.7-7.8c4.7-0.3,9.6-0.5,14.1-1.5c0.8-0.2,1.4-0.9,1.4-1.7V72.4h1.9L143,121L143,121z"/>
	<path class="st1" d="M69,83.7c2.1,0.2,4.1,0.3,6.1,0.4c6.1,0.4,11.8,0.7,16.3,2.4c0.2,0.1,0.4,0.1,0.6,0.1c0.7,0,1.4-0.4,1.6-1.1
		c0.3-0.9-0.1-1.9-1-2.3c-5-1.9-11-2.3-17.3-2.7c-2-0.1-4-0.2-6-0.4c-1-0.1-1.8,0.6-1.9,1.6C67.3,82.8,68.1,83.7,69,83.7L69,83.7z"
		/>
	<path class="st1" d="M92.6,95.9c-4.9-1.9-10.9-2.3-17.1-2.7c-2-0.1-4.1-0.3-6.2-0.4c-1-0.1-1.8,0.6-1.9,1.6s0.6,1.8,1.6,1.9
		c2.1,0.2,4.2,0.3,6.3,0.5c6,0.4,11.7,0.7,16.1,2.4c0.2,0.1,0.4,0.1,0.6,0.1c0.7,0,1.4-0.4,1.6-1.1C94,97.2,93.5,96.2,92.6,95.9z"/>
	<path class="st1" d="M92.6,108.4c-4.8-1.8-10.5-2.2-17-2.6c-2-0.1-4.2-0.3-6.3-0.5c-1-0.1-1.8,0.6-1.9,1.6s0.6,1.8,1.6,1.9
		c2.2,0.2,4.3,0.3,6.4,0.5c6.2,0.4,11.6,0.8,16,2.4c0.2,0.1,0.4,0.1,0.6,0.1c0.7,0,1.4-0.4,1.6-1.1C94,109.7,93.5,108.7,92.6,108.4
		L92.6,108.4z"/>
	<path class="st1" d="M108,86.7c0.2,0,0.4,0,0.6-0.1c4.5-1.7,10.2-2.1,16.3-2.4c2-0.1,4-0.2,6.1-0.4c1-0.1,1.7-0.9,1.6-1.9
		s-0.9-1.7-1.9-1.6c-2,0.2-4,0.3-6,0.4c-6.3,0.4-12.3,0.7-17.3,2.7c-0.9,0.3-1.3,1.3-1,2.3C106.6,86.3,107.3,86.7,108,86.7L108,86.7
		z"/>
	<path class="st1" d="M108,99.3c0.2,0,0.4,0,0.6-0.1c4.4-1.7,10.1-2,16.1-2.4c2-0.1,4.1-0.3,6.3-0.5c1-0.1,1.7-0.9,1.6-1.9
		c-0.1-1-0.9-1.7-1.9-1.6c-2.1,0.2-4.2,0.3-6.2,0.4c-6.3,0.4-12.2,0.8-17.1,2.7c-0.9,0.3-1.3,1.3-1,2.3
		C106.6,98.8,107.3,99.3,108,99.3L108,99.3z"/>
	<path class="st1" d="M132.6,106.9c-0.1-1-0.9-1.7-1.9-1.6c-2.2,0.2-4.3,0.3-6.3,0.5c-6.5,0.4-12.2,0.8-17,2.6
		c-0.9,0.3-1.4,1.3-1,2.2c0.3,0.7,0.9,1.1,1.6,1.1c0.2,0,0.4,0,0.6-0.1c4.3-1.6,9.7-2,16-2.4c2.1-0.1,4.2-0.3,6.4-0.5
		C131.9,108.7,132.6,107.8,132.6,106.9L132.6,106.9z"/>
</g>
</svg>
