<?xml version="1.0" encoding="utf-8"?>
<!-- Generator: Adobe Illustrator 24.0.0, SVG Export Plug-In . SVG Version: 6.00 Build 0)  -->
<svg version="1.1" id="Capa_1" xmlns="http://www.w3.org/2000/svg" xmlns:xlink="http://www.w3.org/1999/xlink" x="0px" y="0px"
	 viewBox="0 0 200 200" style="enable-background:new 0 0 200 200;" xml:space="preserve">
<style type="text/css">
	.st0{opacity:0.1;fill:#089B27;}
	.st1{fill:#0FB747;}
</style>
<circle class="st0" cx="100" cy="100" r="94"/>
<g>
	<path class="st1" d="M127,49.5H92.4c-6,0-10.9,4.9-10.9,10.9v2.6H81c-6,0-10.9,4.9-10.9,10.9c-6,0-10.9,4.9-10.9,10.9V132
		c0,6,4.9,10.9,10.9,10.9h32.4c6,0,10.9-4.9,10.9-10.9c6,0,10.9-4.9,10.9-10.9v-0.4h2.6c6,0,10.9-4.9,10.9-10.9V60.4
		C138,54.4,133.1,49.5,127,49.5z M102.5,136.4H70.1c-2.4,0-4.4-2-4.4-4.4V84.9c0-2.4,2-4.4,4.4-4.4v40.5c0,6,4.9,10.9,10.9,10.9
		h25.8C106.9,134.4,104.9,136.4,102.5,136.4z M117.8,121.1c0,2.4-2,4.4-4.4,4.4H81c-2.4,0-4.4-2-4.4-4.4V74c0-2.4,2-4.4,4.4-4.4h0.4
		v40.1c0,6,4.9,10.9,10.9,10.9l0,0h25.4V121.1z M131.4,109.7c0,2.4-2,4.4-4.4,4.4c0,0,0,0,0,0H92.4c-2.4,0-4.4-2-4.4-4.4V66.3l0,0
		v-5.9c0-2.4,2-4.4,4.4-4.4H127c2.4,0,4.4,2,4.4,4.4V109.7z"/>
	<path class="st1" d="M98.3,82.9h10.7c1.8,0,3.3-1.5,3.3-3.3c0-1.8-1.5-3.3-3.3-3.3H98.3c-1.8,0-3.3,1.5-3.3,3.3
		C95.1,81.4,96.5,82.9,98.3,82.9z"/>
	<path class="st1" d="M122.2,89.9H98.3c-1.8,0-3.3,1.5-3.3,3.3c0,1.8,1.5,3.3,3.3,3.3h23.9c1.8,0,3.3-1.5,3.3-3.3
		C125.5,91.3,124,89.9,122.2,89.9z"/>
</g>
</svg>
