<?xml version="1.0" encoding="utf-8"?>
<!-- Generator: Adobe Illustrator 24.0.0, SVG Export Plug-In . SVG Version: 6.00 Build 0)  -->
<svg version="1.1" id="Capa_1" xmlns="http://www.w3.org/2000/svg" xmlns:xlink="http://www.w3.org/1999/xlink" x="0px" y="0px"
	 viewBox="0 0 200 200" style="enable-background:new 0 0 200 200;" xml:space="preserve">
<style type="text/css">
	.st0{opacity:0.1;fill:#07979E;enable-background:new    ;}
	.st1{fill:#168E9B;}
</style>
<circle class="st0" cx="100" cy="100" r="94"/>
<g>
	<path class="st1" d="M139.4,57.9H60.6c-1.5,0-2.7,1.2-2.7,2.7v38.5c0,1.5,1.2,2.7,2.7,2.7s2.7-1.2,2.7-2.7V84.8h73.4v51.9H63.3
		v-14.3c0-1.5-1.2-2.7-2.7-2.7s-2.7,1.2-2.7,2.7v17c0,1.5,1.2,2.7,2.7,2.7h78.8c1.5,0,2.7-1.2,2.7-2.7V60.6
		C142.1,59.1,140.9,57.9,139.4,57.9z M63.3,63.3h29.4l-5.4,16.1h-24C63.3,79.4,63.3,63.3,63.3,63.3z M93,79.4l5.4-16.1h38.4v16.1H93
		z"/>
	<circle class="st1" cx="71.4" cy="71.4" r="2.7"/>
	<circle class="st1" cx="82.1" cy="71.4" r="2.7"/>
	<path class="st1" d="M128.6,68.7h-25.1c-1.5,0-2.7,1.2-2.7,2.7s1.2,2.7,2.7,2.7h25.1c1.5,0,2.7-1.2,2.7-2.7S130.1,68.7,128.6,68.7z
		"/>
	<path class="st1" d="M71.4,120.6h39.4c1.5,0,2.7-1.2,2.7-2.7V92.8c0-1.5-1.2-2.7-2.7-2.7H71.4c-1.5,0-2.7,1.2-2.7,2.7v25.1
		C68.7,119.4,69.9,120.6,71.4,120.6z M101.1,115.2l-6.3-6.3l1.6-1.6l7.8,7.8L101.1,115.2L101.1,115.2z M93.5,115.2H77.8l7.8-7.8
		L93.5,115.2z M108.1,95.5v15.9l-9.7-9.7c-1-1-2.7-1-3.8,0l-3.5,3.5l-3.5-3.5c-1-1-2.7-1-3.8,0l-9.7,9.7V95.5H108.1z"/>
	<path class="st1" d="M71.4,131.3h57.3c1.5,0,2.7-1.2,2.7-2.7s-1.2-2.7-2.7-2.7H71.4c-1.5,0-2.7,1.2-2.7,2.7S69.9,131.3,71.4,131.3z
		"/>
	<path class="st1" d="M121.5,99.1h7.2c1.5,0,2.7-1.2,2.7-2.7s-1.2-2.7-2.7-2.7h-7.2c-1.5,0-2.7,1.2-2.7,2.7S120,99.1,121.5,99.1z"/>
	<path class="st1" d="M121.5,109.8h7.2c1.5,0,2.7-1.2,2.7-2.7s-1.2-2.7-2.7-2.7h-7.2c-1.5,0-2.7,1.2-2.7,2.7
		C118.8,108.6,120,109.8,121.5,109.8z"/>
	<path class="st1" d="M121.5,120.6h7.2c1.5,0,2.7-1.2,2.7-2.7s-1.2-2.7-2.7-2.7h-7.2c-1.5,0-2.7,1.2-2.7,2.7S120,120.6,121.5,120.6z
		"/>
	<circle class="st1" cx="60.6" cy="110.7" r="2.7"/>
</g>
</svg>
